M48
; DRILL file {KiCad 8.0.8} date 2025-03-19T14:16:47+0100
; FORMAT={-:-/ absolute / inch / decimal}
; #@! TF.CreationDate,2025-03-19T14:16:47+01:00
; #@! TF.GenerationSoftware,Kicad,Pcbnew,8.0.8
; #@! TF.FileFunction,Plated,1,2,PTH
FMAT,2
INCH
; #@! TA.AperFunction,Plated,PTH,ViaDrill
T1C0.0315
; #@! TA.AperFunction,Plated,PTH,ComponentDrill
T2C0.0315
; #@! TA.AperFunction,Plated,PTH,ComponentDrill
T3C0.0350
; #@! TA.AperFunction,Plated,PTH,ComponentDrill
T4C0.0394
%
G90
G05
T1
X5.6063Y-2.0709
X5.6929Y-2.0236
X6.2598Y-2.4646
X6.3228Y-2.063
T2
X4.1626Y-2.8937
X4.2626Y-2.8937
X4.2673Y-3.0236
X4.4882Y-3.1988
X4.4882Y-3.2972
X4.5673Y-3.0236
X4.6457Y-3.1177
X4.6457Y-3.4177
X5.015Y-3.4055
X5.165Y-2.1157
X5.165Y-2.4118
X5.2067Y-3.5433
X5.265Y-2.1157
X5.265Y-2.4118
X5.3051Y-3.5433
X5.315Y-3.4055
X5.365Y-2.1157
X5.365Y-2.4118
X5.465Y-2.1157
X5.465Y-2.4118
X5.5118Y-3.098
X5.5118Y-3.398
X5.6043Y-3.6457
X5.6693Y-3.0268
X5.6693Y-3.1268
X5.6693Y-3.2268
X5.6693Y-3.3268
X5.6965Y-3.5039
X5.7028Y-3.6457
X5.8268Y-2.2772
X5.8268Y-2.3772
X5.8268Y-2.4772
X5.8268Y-2.5772
X5.8268Y-2.6772
X5.9685Y-2.8012
X5.9685Y-2.8996
X5.9965Y-3.5039
X6.126Y-2.3614
X6.126Y-2.4614
X6.126Y-2.5614
X6.126Y-2.6614
X6.1417Y-3.513
X6.1417Y-3.613
T3
X4.9606Y-2.9496
X4.9606Y-3.0496
X4.9606Y-3.1496
X4.9606Y-3.2496
X5.2606Y-2.9496
X5.2606Y-3.0496
X5.2606Y-3.1496
X5.2606Y-3.2496
T4
X4.677Y-1.937
X4.777Y-1.937
X4.877Y-1.937
X4.977Y-1.937
X5.037Y-3.837
X5.077Y-1.937
X5.137Y-3.837
X5.177Y-1.937
X5.237Y-3.837
X5.277Y-1.937
X5.337Y-3.837
X5.377Y-1.937
X5.437Y-3.837
X5.477Y-1.937
X5.537Y-3.837
X5.577Y-1.937
X5.637Y-3.837
X5.737Y-1.937
X5.737Y-3.837
X5.837Y-1.937
X5.937Y-1.937
X5.937Y-3.837
X6.037Y-1.937
X6.037Y-3.837
X6.137Y-1.937
X6.137Y-3.837
X6.237Y-1.937
X6.237Y-3.837
X6.337Y-1.937
X6.337Y-3.837
X6.437Y-1.937
X6.437Y-3.837
M30
